<svg xmlns="http://www.w3.org/2000/svg" xml:space="preserve" width="640" height="480" viewBox="0 0 640 480"><path d="M.2 0h160l6.6 9.9h306.8l6.6-9.9h160v480h-160l-6.6-9.9H166.8l-6.6 9.9H.2V0z" style="fill:red"/><path d="M160.2 0h320v480h-320V0zm165.9 375.4-3-57.6c-.1-3.5 2.6-6.5 6-6.6.4 0 .9 0 1.4.1l57.2 10.1L380 300c-.6-1.7-.1-3.7 1.4-4.8l62.7-50.8-14.2-6.6c-2-.9-2.9-3.2-2.3-5.3l12.4-38.1-36.1 7.7c-2 .4-4.1-.6-4.8-2.6l-7-16.5-28.2 30.3c-1.6 1.7-4.4 1.8-6.1.1-1.1-1-1.6-2.5-1.3-4l13.6-70.2-21.8 12.6c-2.1 1.2-4.7.5-5.9-1.6-.1-.1-.1-.1-.1-.3l-22-43.5-22.3 43.7c-1.1 2.1-3.7 3-5.8 1.9-.1-.1-.1-.1-.3-.1l-21.8-12.6 13.6 70.2c.4 2.3-1.1 4.6-3.4 5.1-1.4.3-2.9-.2-4-1.3L248.1 183l-7 16.5c-.8 1.9-2.8 3-4.8 2.6l-36.1-7.7 12.4 38.1c.7 2.1-.3 4.3-2.3 5.3l-14.2 6.6 62.7 50.8c1.4 1.1 2 3.1 1.4 4.8l-7.8 21.3 57.2-10.1c3.4-.6 6.8 1.7 7.3 5.2.1.4.1.9.1 1.4l-3 57.6h12.1z" style="fill:#fff"/></svg>