<svg version="1.1" id="Layer_1" xmlns="http://www.w3.org/2000/svg" x="0" y="0" width="640" height="480" viewBox="0 0 640 480" xml:space="preserve"><style>.st0{fill:#d82126}.st1{fill:#f8e92e}</style><path class="st0" d="M-152.5.5h958v479h-958V.5z"/><path class="st1" d="M-152.5 287.9v-95.8l958 95.8v-95.8l-958 95.8zM278.6.5h95.8l-47.9 188.2L278.6.5zm95.8 479h-95.8l47.9-188.2 47.9 188.2zM-152.5.5H-8.8l379.3 265.9L-152.5.5zm0 479H-8.8l379.3-265.9-523 265.9zm958-479H661.8L282.5 266.4 805.5.5zm0 479H661.8L282.5 213.6l523 265.9z"/><circle class="st0" cx="326.5" cy="240" r="85.5"/><circle class="st1" cx="326.5" cy="240" r="68.4"/></svg>