<svg xmlns="http://www.w3.org/2000/svg" width="640" height="480" viewBox="0 0 640 480"><path fill="#FFF" d="M4.125 225.3H323V0H0v225.297h4.125v.003zM156.6 99.6l16-48 16.3 47.9h51.6l-41.5 30 15.9 48-.101.2-42-29.4-41.699 29.6 15.5-48L105 100l51.6-.4zM323.1 225.3V480H640V225.3H323.1zm193.8 188.6h-.1l-.029-.085-42.271-27.616-42.1 28 15.6-45.6-42-28 52-.5 16.2-45.399 16.4 45.299h52l-41.8 28.5 15.971 45.315.129.086z"/><path fill="#0000AB" d="M323 225.3H4.125v-.003H0V480h323.1V225.3zM131.1 177.9l41.7-29.6 42 29.4.1-.2-15.9-48 41.5-30h-51.6l-16.3-47.9-16 48-51.6.4 41.6 29.9z"/><path fill="#D80000" d="M516.9 413.9l-.129-.085.03.085zM542.6 339.999h-52L474.2 294.7 458 340.1l-52 .5 42 28-15.6 45.599 42.1-28 42.271 27.616-15.97-45.316z"/><path fill="#DB0000" d="M323 6.75V225.3h317V0H323v3.6z"/></svg>