<svg version="1.1" id="Layer_1" xmlns="http://www.w3.org/2000/svg" x="0" y="0" width="640" height="480" viewBox="0 0 640 480" xml:space="preserve"><style>.st0{fill:#ee1c25}.st1{fill:#0b4ea2}.st2{fill:#fff}</style><path class="st0" d="M0 0h640v480H0z"/><path class="st1" d="M0 0h640v320H0z"/><path class="st2" d="M0 0h640v160H0z"/><path id="_x3C_Path_x3E_" class="st2" d="M279.8 112.8H104l-.6 6.4c-.1 1.4-3.2 35.2-3.2 109.4 0 34.9 10.5 65.6 31.1 91.4 14.5 18.1 33.4 33.3 57.8 46.5l2.8 1.5 2.8-1.5c24.4-13.2 43.3-28.4 57.8-46.5 20.7-25.8 31.1-56.5 31.1-91.4 0-74.2-3.1-108-3.2-109.4l-.6-6.4z"/><path class="st0" d="M191.9 360c-35.1-19-85.3-56.8-85.3-131.4s3.2-108.6 3.2-108.6H274s3.2 33.9 3.2 108.6c0 74.6-50.2 112.4-85.3 131.4z"/><path class="st2" d="M199.5 209c9.5.2 28 .6 44.5-5.6 0 0-.4 6.6-.4 14.4 0 7.7.4 14.4.4 14.4-15.1-5.7-33.8-5.8-44.5-5.7v41.2h-15v-41.2c-10.7-.2-29.4 0-44.5 5.7 0 0 .4-6.6.4-14.4 0-7.7-.4-14.4-.4-14.4 16.5 6.2 35 5.8 44.5 5.6v-25.9c-8.7-.1-21.1.4-35.2 5.7 0 0 .4-6.6.4-14.4 0-7.7-.4-14.4-.4-14.4 14.1 5.3 26.6 5.8 35.2 5.7-.4-16.4-4.7-37.1-4.7-37.1s8.7.8 12.2.8 12.2-.8 12.2-.8-4.2 20.7-4.7 37.1c8.7.1 21.1-.4 35.2-5.7 0 0-.4 6.6-.4 14.4 0 7.7.4 14.4.4 14.4-14.1-5.3-26.6-5.8-35.2-5.7V209z"/><path class="st1" d="M191.9 263.3c-17.7 0-27.1 27.6-27.1 27.6s-5.3-13.1-19.7-13.1c-9.8 0-16.9 9.8-21.5 18.8 17.7 31.8 46.1 51.4 68.3 63.4 22.3-12.1 50.6-31.7 68.3-63.4-4.6-9-11.8-18.8-21.5-18.8-14.4 0-19.7 13.1-19.7 13.1s-9.4-27.6-27.1-27.6z"/></svg>