<svg width="640" height="480" viewBox="0 0 640 480" fill="none" xmlns="http://www.w3.org/2000/svg"><g clip-path="url(#clip0)"><path d="M0 0h13.913v480H0V0z" fill="#fff"/><path d="M13.913 0H640v480H13.913V0z" fill="#E30A17"/><path d="M310.783 175.828c-11.29-14.446-26.125-24.613-42.545-29.16-16.42-4.547-33.653-3.26-49.423 3.693-15.77 6.952-29.336 19.242-38.905 35.246-9.57 16.004-14.692 34.97-14.692 54.393 0 19.423 5.122 38.389 14.692 54.393 9.569 16.004 23.135 28.294 38.905 35.246 15.77 6.953 33.003 8.24 49.423 3.693 16.42-4.547 31.255-14.714 42.545-29.16-12.09 21.969-30.057 38.828-51.198 48.041-21.141 9.213-44.311 10.281-66.025 3.043-21.714-7.238-40.797-22.389-54.377-43.175-13.58-20.786-20.922-46.082-20.922-72.081 0-25.999 7.342-51.295 20.922-72.081 13.58-20.786 32.663-35.937 54.377-43.175 21.714-7.238 44.884-6.17 66.025 3.043 21.141 9.213 39.108 26.072 51.198 48.041z" fill="#fff"/><path d="M304.348 240l36.051-13.471v-43.592l22.281 35.267 36.051-13.471L376.451 240l22.28 35.267-36.051-13.471-22.281 35.267v-43.592L304.348 240z" fill="#fff"/></g><defs><clipPath id="clip0"><path fill="#fff" d="M0 0h640v480H0z"/></clipPath></defs></svg>