<svg xmlns="http://www.w3.org/2000/svg" width="640" height="480" fill="none" viewBox="0 0 866 650"><path fill="#B22234" d="M866 0H0v650h866V0Z"/><path fill="#000" d="M0 75h866Zm866 100H0ZM0 275h866Zm866 100H0ZM0 475h866Zm866 100H0Z"/><path stroke="#fff" stroke-miterlimit="10" stroke-width="50" d="M0 75h866m0 100H0m0 100h866m0 100H0m0 100h866m0 100H0"/><path fill="#3C3B6E" d="M494 0H0v350h494V0Z"/><path fill="#fff" d="m41.16 15 11.76 36.2-30.78-22.38h38L29.41 51.2 41.16 15ZM41.16 85l11.76 36.2-30.78-22.38h38L29.41 121.2 41.16 85ZM41.16 155l11.76 36.2-30.78-22.38h38L29.41 191.2 41.16 155ZM41.16 225l11.76 36.2-30.78-22.38h38L29.41 261.2 41.16 225ZM41.16 295l11.76 36.2-30.78-22.38h38L29.41 331.2 41.16 295ZM82.33 50l11.75 36.2-30.77-22.38h38L70.57 86.2 82.33 50ZM82.33 120l11.75 36.2-30.77-22.38h38L70.57 156.2 82.33 120ZM82.33 190l11.75 36.2-30.77-22.38h38L70.57 226.2 82.33 190ZM82.33 260l11.75 36.2-30.77-22.38h38L70.57 296.2 82.33 260ZM123.5 15l11.75 36.2-30.78-22.38h38.05L111.74 51.2 123.5 15ZM123.5 85l11.75 36.2-30.78-22.38h38.05l-30.78 22.38L123.5 85ZM123.5 155l11.75 36.2-30.78-22.36h38.05l-30.78 22.36L123.5 155ZM123.5 225l11.75 36.2-30.78-22.36h38.05l-30.78 22.36L123.5 225ZM123.5 295l11.75 36.2-30.78-22.36h38.05l-30.78 22.36L123.5 295ZM164.66 50l11.76 36.2-30.78-22.38h38L152.91 86.2 164.66 50ZM164.66 120l11.76 36.2-30.78-22.36h38l-30.73 22.36 11.75-36.2ZM164.66 190l11.76 36.2-30.78-22.36h38l-30.73 22.36 11.75-36.2ZM164.66 260l11.76 36.2-30.78-22.36h38l-30.73 22.36 11.75-36.2ZM205.83 15l11.75 36.2-30.77-22.38h38L194.07 51.2 205.83 15ZM205.83 85l11.75 36.2-30.77-22.38h38l-30.74 22.38L205.83 85ZM205.83 155l11.75 36.2-30.77-22.36h38l-30.74 22.36 11.76-36.2ZM205.83 225l11.75 36.2-30.77-22.36h38l-30.74 22.36 11.76-36.2ZM205.83 295l11.75 36.2-30.77-22.36h38l-30.74 22.36 11.76-36.2ZM247.02 50l11.73 36.2-30.73-22.38h38L235.24 86.2 247.02 50ZM247.02 120l11.73 36.2-30.73-22.38h38l-30.78 22.38 11.78-36.2ZM247.02 190l11.73 36.2-30.73-22.38h38l-30.78 22.38 11.78-36.2ZM247.02 260l11.73 36.2-30.73-22.38h38l-30.78 22.38 11.78-36.2ZM288.16 15l11.76 36.2-30.78-22.38h38L276.41 51.2 288.16 15ZM288.16 85l11.76 36.2-30.78-22.38h38l-30.73 22.38L288.16 85ZM288.16 155l11.76 36.2-30.78-22.36h38l-30.73 22.36 11.75-36.2ZM288.16 225l11.76 36.2-30.78-22.36h38l-30.73 22.36 11.75-36.2ZM288.16 295l11.76 36.2-30.78-22.36h38l-30.73 22.36 11.75-36.2ZM329.33 50l11.75 36.2-30.77-22.38h38L317.57 86.2 329.33 50ZM329.33 120l11.75 36.2-30.77-22.36h38l-30.74 22.36 11.76-36.2ZM329.33 190l11.75 36.2-30.77-22.36h38l-30.74 22.36 11.76-36.2ZM329.33 260l11.75 36.2-30.77-22.36h38l-30.74 22.36 11.76-36.2ZM370.5 15l11.75 36.2-30.78-22.38h38.05L358.74 51.2 370.5 15ZM370.5 85l11.75 36.2-30.78-22.38h38.05l-30.78 22.38L370.5 85ZM370.5 155l11.75 36.2-30.78-22.36h38.05l-30.78 22.36L370.5 155ZM370.5 225l11.75 36.2-30.78-22.36h38.05l-30.78 22.36L370.5 225ZM370.5 295l11.75 36.2-30.78-22.36h38.05l-30.78 22.36L370.5 295ZM411.66 50l11.76 36.2-30.78-22.38h38L399.91 86.2 411.66 50ZM411.66 120l11.76 36.2-30.78-22.36h38l-30.73 22.36 11.75-36.2ZM411.66 190l11.76 36.2-30.78-22.36h38l-30.73 22.36 11.75-36.2ZM411.66 260l11.76 36.2-30.78-22.36h38l-30.73 22.36 11.75-36.2ZM452.83 15l11.75 36.2-30.77-22.38h38L441.07 51.2 452.83 15ZM452.83 85l11.75 36.2-30.77-22.38h38l-30.74 22.38L452.83 85ZM452.83 155l11.75 36.2-30.77-22.36h38l-30.74 22.36 11.76-36.2ZM452.83 225l11.75 36.2-30.77-22.36h38l-30.74 22.36 11.76-36.2ZM452.83 295l11.75 36.2-30.77-22.36h38l-30.74 22.36 11.76-36.2Z"/></svg>