<svg version="1.1" id="Layer_1" xmlns="http://www.w3.org/2000/svg" x="0" y="0" width="640" height="480" viewBox="0 0 640 480" xml:space="preserve"><style>.st2,.st3{fill:#c8102e;stroke:#000;stroke-width:1.8}.st3{fill:none;stroke-width:1.2273}</style><path fill="#00b140" d="M-.3-.3H640V480H-.3z"/><path fill="#fff" d="M-.3-.3H640v240.2H-.3z"/><path class="st2" d="M194.1 100.4c-20.8 4.1-73.4 10.6-93.9 6.2l4 12.7c34-4.1 66.5 10.3 96.7-4.7l-6.8-14.2z"/><path class="st2" d="M113.6 131.4c-13-5-34.4-34.2-38-51.9 10.1 9.1 34.4 20.9 43.2 19.8-2.8 2.7-9.9 9.7-15.3 10.6 2.6 6.4 7.5 14.7 10.1 21.5z"/><path class="st2" d="M155.4 122.5c3.8 6.8 23.6 4 33.6-4.3l-2.7-5.8-2 4.9-3.2-4.6-.8 7.2-5.5-5.3-.9 6.3-3.5-5.6-1.3 6.9-5.2-5.3-2 7.2c-1.6-2.5-2.4-5.5-2.5-8.7-2.1 1.2-3.8 4.6-4 7.1z"/><path class="st2" d="M157 100.5c0 1.8 1.7 6.9 4.7 8.4.1-2.2-2-7.4-.7-9.6l2.7 3.2.8-6.2 3.7 3.4.4-7.2 3.8 3.2v-8c-6.2.9-13.7 10.2-15.4 12.8z"/><path class="st2" d="M539.8 180.9c-1.6-4.7-6.5-10.5-10.9-14 1.7-5.2 4.4-13.5 7-22.1-6.6 1.8-20.3 3.1-28.4 1.9 15.1-18.9 46.7-57.8 57.1-75.5-3.8 24.2-.9 78.4 6.6 97.3-8-4.1-17.3-12.7-22.5-22.1-3.1 13.5-6.8 28.3-8.9 34.4"/><path class="st2" d="M245.3 77.4c.9 6.2 1.2 10.9 4.7 12.7 3.5 1.8 11.3 5.3 16.3 15.9-5.9-2.1-14.2-5-14.9 2.1-.7 6.7 1.7 6.5 5.7 7.7 5.2 1.5 10.1 9.4 10.4 20.1-4.2-3.2-10.1-5.9-13.9-5.9s-4.8.9-5.8 6.8c-1.6 9.7 1.3 10.3 4.8 10.9 3.5.6 11.1 5 11.6 21.2-4-4.4-12.1-6.9-17-8-2.7-.6-3.2 1.2-3.5 7.4-.4 6.2.2 8.3 5 10 4.7 1.8 10.1 6.2 11.6 15.6-4.5-2.7-11.6-1.8-13.7-.6-2.1 1.2-3.3 7.8 1.2 20.5 9.6-4.1 19.6-6.8 29.7-8.1 22.3-2.9 17-22.4 17-53.1 0-30.7 49.1-64.9 123.6-119.1-17.9 57.2 6.6 51.9 20.3 45.4 13.7-6.5 45.8-23 70.8-36.6-34.4 28.9-51.9 59.6-21.7 73.1-38.7 15.3-56.6 57.2-35.4 83.8-14.5-6.4-34.5 5.7-42.9 22.5 15.1-1.8 44.4 2.8 62.3 9.3 17.1 6.2 45.3-1.1 47.9-20.1.1-1 .2-1.9.2-2.9 0-6.6-1.3-11.6-3.3-15.3-4.4-8-12.1-9.8-16.3-9.8-6.1 0-12.5 3.2-12.5 8.8s3.8 8 11.3 8c4.1 0 10.5.9 17.5-7 2 3.7 3.3 8.7 3.3 15.3 0 1-.1 1.9-.2 2.9-6.5 4.7-13.9 7.1-21.5 7.2-15.1 0-29.3-7.7-29.3-28.3s17-32.4 30.7-32.4c18.9 0 45.3 9.4 45.3 47.2 0 47.8-50.1 70.1-79.8 70.1 5 5.2 10.6 10.1 16.6 13 21.1 10.3 39.6 23 46.2 42.5-8 0-21.2-8.3-27.4-16.5 17 26-3.6 73.7-1.4 89.7 2.4 17.1 18.4 6.5 18.4 19.8 0 11.8-9.4 9.7-13 4.4-3.5-5.3-14.9-9.8-20.8-4.4-5.2 4.7-13.2 7.1-16.7 2.4-3.5-4.7-16.5-3-21.9 3.5-5.4 6.5-13 7-15.3 2.1-2.5-5.3-1.9-11.7 8.2-13.9-4.5-5.9-18.1 4.2-20.5-7-1.7-8.1 1.9-11.8 13.7-10.6-1.2-3.8-9.9-5.6-8.7-13.6 1.2-8 8-12.9 16-1.2 21.5 31.3 31.4 13.9 38.7.3-2.4-7.1.2-11.8 4.7-16.2-2.4-5-.9-12.1.7-16.8-3.5-2.7-5.7-14.5-1.9-18.6-3.1 0-7.8-4.4-7.8-12.1-4.2 3.4-9.7 2.6-13.2-1.8-4.5 3.2-16.3 3.8-21.5-3.2-7.1 3.5-19.6 2.7-22.9-4.1-6.2 2.1-17.7-4.7-20.1-12.1-3.7-.4-7.2-1.8-10.3-4.1-9.4 8.8-22.2 26-9.5 38.9 12.7 13 39.2 2.4 39.6 34.8-6.1-6.5-17.5-4.7-21.2-11.2-12.7 23.6-31.1 45.1-58.3 54 4 3.2 11.3 3.5 14.2 3.2 5.9-.6 10.9 5.6 6.4 13s-13.7 1.2-19.1-5c-7.8-8.9-13-3.8-15.1-1.8-2.1 2.1-5 3.2-8.7-1.5-3.8-4.7-7.3-1.5-9.2 1.5-3.1 4.8-10.1-6.2-21.5 6.8-5.4 6.2-18.4-1.8-13.2-10.9-5.4 1.8-15-8.1-7.1-17.7 7.3-8.8 21.2 11.5 32.6 5.6-2.5-4-7.8-11.5-18.9-13.3-5.7-.9-6.7-9.1-4-15 3.3-7.4 13.4-2.4 20.3 9.1 5.4 9.1 12.5 9.1 19.8 7.4 5.1-4.3 13.1-4.4 16.6-2.9 0-4.4 5.5-8.3 9.8-8.3-.2-5.9 1.2-11.2 8-12.7l1.8-.3c-4.8.3-9.5-2.2-12.6-6.8-9.5 3-19.9-2.8-21.5-14-14.9-1.4-16.4-21.1-12.7-27.6.3-.5.6-1 1-1.5-4.4 4.4-10.1 6.4-17.2 3.2-6.2 10.8-17 17.2-28.8 12.9-2.9 5.8-7.4 10.1-12.7 11.9.4 7.1-.7 15.2-7.9 24.8 1.9-13-11.3-17.1-8.5-38.3-.9 15.3-36.6 40.7-42.2 74.3 5.2 2.9 10.9 5 14.4 4.1 8.9-2.2 11.8 9.4 9.2 14.2-2.6 4.7-9.9 7.1-13 2.9-3.1-4.1-9.4 1.5-12.5-6.2-3.1-7.7-11.6-5-15.1 0s-15.3-6.5-23.8 5c-3.2 4.3-13.9 8.8-20.3 6.5-6.4-2.4-10.1-10.6-8-15-4.2-5-4.3-11.2-.2-16.5-1.5-7.5 3.5-22.4 11.9-16.5 5.3 3.7 24.1 21.1 40.5 1.2 14.2-17.5 5.9-31.5 15-33.3-1.1-7.1 2.4-15.9 6.1-17.7-1.1-3-1.3-6.3-.6-9.5-2.1-.2-4.3-.8-6.3-1.8-7.1 2.6-14.4 4-21.7 4.2 0 7.1-6.6 24.2-12.3 32.4-1.9-64.9-49.1-71.4-55.4-123-.2 7.7-6.6 15.3-7.3 21.8-.7 6.5-3.8 11.5-9.4 8.6-5.7-3-7.1-15.3-1.4-17.1 5.7-1.8 4.6-13.6 8.1-15 3.5-1.5 4.1-6.2 2.7-12.1-1.4-5.9.7-13 2.1-17.4 1.4-4.4-.7-11.8-5.7-14.5-4.5-2.3-6.7-8.7-4.9-14.3 0-.1.1-.3.1-.4-5.2-4.7-3.7-14.9 3.3-16.8 8.7-2.4 8.5 15.6 13.4 17.7-.7-3.5.2-10.3 2.4-14.7-2.8-7.7.7-13.9 6.4-13.9 9.9 0 6.6 20.6 4.2 27.1 3.3-5.9 8.5-12.7 12.5-8 4 4.7 3.4 14.6-.9 18.9-3.5 3.5-10.9 9.1-8.7 15.3 4.2 9.4 6.8 20.6 7.3 35.1 5.9 5.6 9.7 12.1 9.7 17.4 3.9.3 11.3 4.3 12.4 10 4.7-.6 11.8.6 13.8 6 1.5-1 5.6-1.4 8.1-1.1 0-4.6 1.2-9 3.5-12.6-8-11.2-7.8-28.9.5-36-2.4-7.3-1.4-20.9 6.4-28-.2-7.4 1.4-17.1 9.2-23.3-1.2-8 2.8-18.9 7.8-19.5-1.2-7.7-.3-17.1 6.6-21.6-1.6-2.3-2.5-5.2-2.3-8.3-12 3.2-16.7 12.4-20.5 21-.5-3.5-1.2-8.3-2.8-11.8 0 9.1-5.4 12.4-5.7 25.1-4-5.3-5.4-13.9-5.2-19.8.2-4.7-6.1-9.1-4.2-17.4 9.4 10.9 28.5-13 45.1-5.3-16.3-42.8-28.1-22.1-36.3-14.7-8.3 7.4-14.2-3.5-13.2-10.6-11.1-3.2-24.3-2.7-38.7.9 10.6-17.4 35.6-25.1 54-23.3 8-18.6 17.7-15.9 27.1-14.2 6.2 1.2 13.4 1.2 20.5.7 4.5-15.6 30.7-17.2 33.3-29.6 2.4 2.4.9 11.2-1.4 18.9 6.8-2.6 12.7-5.3 14.6-10.6 1.2 5-.7 18.6-3.3 22.7 2.7-.9 5.5-1.3 8.3-1.2-8.3 5.9-18.6 14.7-20.3 16.2-1.9 1.4-2.9 4.3 1.4 7.3-4.7 1.2-17.9 7.1-23.4 2.4"/><g><path class="st2" d="M66 157.2c6.3-5.6 14.8-1.5 16.6 6.8 1.2 5.3-6 9.2-6.6 4.3-.8-6.7-4.3-10.8-10-11.1z"/><path class="st2" d="M90.5 140c7.3-3.1 14.5 3.9 14.4 12.5-.1 5.5-7.9 6.7-7.3 1.7.7-6.7-1.6-11.8-7.1-14.2z"/><path class="st2" d="M117.5 155.1c6.9 4.1 8.2 15.5 3.3 21.5-3.2 3.8-9.4-2.1-6.2-5.2 4.3-4.1 5.5-9.8 2.9-16.3z"/><path class="st2" d="M62.3 274.3c6.1 5.9 14.7 2.2 16.8-5.9 1.4-5.2-5.7-9.6-6.5-4.6-1 6.6-4.5 10.5-10.3 10.5z"/><path class="st2" d="M104.9 393.6c2.5-9.1 11.4-11.8 16.7-6.4 3.4 3.5-.6 11.9-3.4 8.2-3.7-4.8-8.4-5.7-13.3-1.8z"/><path class="st2" d="M96.9 418c.4-9.6 10.7-15.6 17-12.3 4.1 2.2 2 11.6-1.5 9.1-4.6-3.3-11.7-2.3-15.5 3.2z"/><path class="st2" d="M108.1 440.6c-2.6-9 2.8-18.2 9.7-18.2 4.4 0 5.5 9.7 1.5 9.1-5.3-.7-9.4 2.3-11.2 9.1z"/><path class="st2" d="M219.1 432.6c.9-9.5-6.1-16.9-12.8-14.9-4.3 1.3-3.6 11 .2 9.3 5-2.4 9.6-.6 12.6 5.6z"/><path class="st2" d="M261.6 435.6c-1.6-9.4 4.9-17.5 11.7-16.3 4.4.8 4.4 10.6.5 9.3-5.2-1.7-9.6.5-12.2 7z"/><path class="st2" d="M367.8 433.3c.6-9.6-6.7-16.6-13.3-14.3-4.2 1.5-3.2 11.2.5 9.3 5-2.5 9.6-1 12.8 5z"/><path class="st2" d="M249 415.7c-1.1-9.5 6.4-17.7 13.1-16 4.3 1.1 3.1 11.5-.7 9.9-5-2.1-9.5-.2-12.4 6.1z"/><path class="st2" d="M258.9 388.3c.4-9.6 9.1-15.7 15.4-12.3 4 2.2 1.2 12-2.2 9.5-4.7-3.4-9.4-2.7-13.2 2.8z"/><path class="st2" d="M421.3 440.6c-1.6-9.4 4.9-17.5 11.7-16.3 4.4.8 4.4 10.6.5 9.3-5.2-1.7-9.6.5-12.2 7z"/><path class="st2" d="M526.8 436.1c1.6-9.4-4.8-17.6-11.6-16.4-4.4.8-4.4 10.5-.5 9.3 5.2-1.7 9.6.6 12.1 7.1z"/><path class="st2" d="M407.8 418.8c-1.1-9.5 5.8-17.1 12.5-15.4 4.3 1.1 3.8 10.9 0 9.3-5.2-2.1-9.7-.2-12.5 6.1z"/><path class="st2" d="M411.7 392.9c.1-9.6 7.9-15.7 14.3-12.6 4.1 2 2.4 11.5-1.2 9.2-4.8-3.2-9.5-2.3-13.1 3.4z"/></g><g><path class="st3" d="M438.2 78.9c-17.9 7.7-87.3 41.9-100 47.2-12.7 5.3-19.3 6.5-26.9 28.3"/><path class="st3" d="M404.7 53.5c-45.3 36.6-82.1 68.4-92.5 98.5-10.4 30.1-9.7 48.4-34.9 53.7"/><path class="st3" d="M204.7 262.3c11.3-16.5 34.9-36.6 57.6-37.7-4.4 9-8.2 18.5-11.3 28.3"/><path class="st3" d="M250.4 264.1c5.7-9.4 19.8-29.5 28.8-37.7-4.2 15.9-11.3 53.7-7.5 79.6 2.4-24.8 12.7-63.1 23.6-84.9 8 24.2 18.9 58.4 18.9 80.2 2.4-26-2.4-70.8-9.4-90.2 19.3 12.4 43.4 47.8 53.8 69.6-7.1-30.7-31.1-67.8-43.9-79.6 31.6 7.1 77.4 32.4 94.4 51.3-27.8-32.4-61.8-57.8-85.9-69.6 37.7-4.1 108.5 6.5 128.8 16.5-29.7-21.2-91.1-32.4-127.9-29.5 38.7-20.6 107.6-44.2 163.2-54.3-42.5 2.9-97.2 17.1-153.3 33 25-21.2 102.4-61.3 120.8-68.4"/><path class="st3" d="M216 64.7c3.4-13.9 17.1-17.6 28.3-21.8"/><path class="st3" d="M234.6 75c-9.4-.9-11.1-5.1-5.9-9.7 3.3-2.9 10.1-7.7 14.9-8.3-1.2-.3-4.5-1.5-6.1-1.8 5-2.7 13.2-6.5 16-10"/><path class="st3" d="M223.7 52.6c-3.6.4-7.4.8-11.2 1"/><path class="st3" d="M199.3 121.9c-2.3.2-4.6.5-6.8 1.1"/><path class="st3" d="M160.9 272.3c-.1 8.4 2.2 16.6 6.5 23.1 3.8 5.3 26.9 7.1 27.8-2.9"/><path class="st3" d="M164.3 259.6c8 11.2 34 4.4 34-3.8"/><path class="st3" d="M164.8 223.7c2.8 8.8 33 16.8 33.5 6.5"/><path class="st3" d="M171.2 195.6c.2 10.3 27.7 17 28.5 9.4"/><path class="st3" d="M180.4 172.3c1.2 8 19.3 15.6 21.9 12.1"/><path class="st3" d="M188.2 152.9c.9 5.6 13.9 10.6 18.4 8.6"/><path class="st3" d="M194.7 131.3c2.7 4.1 7.9 7.8 16.8 9.8"/><path class="st3" d="M149.5 89.5c.2-6.2 5-7.1 4.2-13.3"/><path class="st3" d="M199 114.8c1.7 3.2 5.9 10 6.4 15 2.4-2.4 4.2-7.4 5-9.7 2.3 2.5 3.9 5.8 4.7 9.4.9-3.5 2.6-9.7 2.8-13.6 3.4 1 6.6 3 9.2 5.9.5-3.8-.9-8.8-3.3-10.9 2.6.1 5.2-.6 7.5-2.1-1.7-2.9-4.2-6.8-6.8-8.6 2.4-.9 5.7-4.4 7.1-5.9-2.1-1.2-5.9-3.8-8.3-5.3 1.4-1.8 2.6-5.3 3.3-8"/><path class="st3" d="M159.9 66.9c-1.5 0-2.2 4.4.6 7.2 2 2 2 10.3-1.7 12.4"/><path class="st3" d="M215.1 129.6c-10.4 30.1-19.9 87.1-16.6 128.4"/><path class="st3" d="M209.6 314.5c0 6.2 7.8 7.4 7.5-7.4"/><path class="st3" d="M216.5 314.5c.9 5.3 9 6.5 7.3-9.1"/><path class="st3" d="M213.2 318.6c.5 11.5 6.4 10.9 6.8 0"/><path class="st3" d="M224 310.7c2.4 7.1 9 3.5 7.1-12.1"/><path class="st3" d="M231.3 305.4c2.6 5.9 8.7 1.2 9.4-9.1"/><path class="st3" d="M200.7 272.6c-4 5.5-8.7 18-3.1 29.8 3.3 6.9 12.4 10.8 13.3 6.6"/><path class="st3" d="M197.6 302.4c-3.7.7-9 10.5-6.4 19.9 1.9 6.6 12.7 10.6 14.4 5.8"/><path class="st3" d="M308.5 310.7c11.8 1.8 27.4-8.3 28.3-28.3"/><path class="st3" d="M335.4 291.8c6.6 5.3 20.3 7.1 25.9-6.5"/><path class="st3" d="M341.5 295.9c-6.1 17.7-11.7 36.5.9 50.1 10.4 11.2 18.1-5.5 30.7 11.2 3.8 5-.7 14.4-38.7 41.9"/><path class="st3" d="M152.8 273.4c2.5 6.6 2.2 19.6-2.5 17.8"/><path class="st3" d="M115.5 420.1c8-15.3 17.5-2.9 24.3-5.6"/><path d="M178.2 69.4c-1.4 4.3 2.3 10.4 5.9 10.9 4.1.6 10-2.7 8.7-8.2" fill="#fff" stroke="#000" stroke-width="1.227"/><path class="st3" d="M174 70c2.1-3.7 26.9 8 36.8-.3"/><path class="st3" d="M93.8 180c-.9 2.7-.6 10.5 3.1 14.7"/><path class="st3" d="M268.8 417.7c1.9-2.9 8.9-5.9 14-4.3 5.1 1.6 14.2-.6 20.1-3.5"/><path class="st3" d="M215.1 129.6c-2.4 28.9 3 73.3 16.5 93"/><path class="st3" d="M207.9 155.2c.4 25.7 5.4 56.3 15.4 73.1"/><path class="st3" d="M202.5 183.3c2 19.5 6.4 39 13.4 51.7"/><path class="st3" d="M199.1 212.8c2.4 11.5 5.7 22.1 10 30.1"/><path class="st3" d="M197.9 240.8c1.3 3.7 2.9 7.3 4.7 10.6"/><path class="st3" d="M214.6 147.6c-.7 9.1-5.2 16.2-9.2 20.3"/><path class="st3" d="M215.1 160.3c-.7 9.1-5.7 17.4-12.1 21.4"/><path class="st3" d="M216.5 172.9c-.7 9.1-7.8 20.3-15.8 25.4"/><path class="st3" d="M218.4 185.6c-.7 9.1-9.9 23-19.3 27.5"/><path class="st3" d="M221.3 198.3c-2.7 12.4-13.6 26.8-23.1 30.1"/><path class="st3" d="M225.6 211c-.7 9.1-15.2 27.7-27.7 33"/><path class="st3" d="M139 267.3c1.5 8.4-3.5 16.1-6.1 14"/><path class="st3" d="M166 296.5c-24.5-6.5-42.8-17.3-52.8-42.5-2.6-6.5 4.2-8.3 3.8-14.2"/><path class="st3" d="M109.6 204.8c-4.2-9.4-5.2-19.8-2.8-26.2"/><path class="st3" d="M126.6 257.3c0 5.3-5.1 12.1-6.8 9.6"/><path class="st3" d="M167.4 295.3c-2.8 8.6 2.6 25 14.6 30.6"/><path class="st3" d="M191.2 322.3c-1.4 1.4-2.5 3.3-2.9 5.4"/><path class="st3" d="M200.9 339.9c-2.1 4.4-10.4 1.2-12-2.7"/><path class="st3" d="M167.7 388.2c-10 12.3-20.2 13-32.4 14.7-12.3 1.8-15.7-5.2-20.1.6"/><path class="st3" d="M247.6 295.9c1.4 8.3.9 16.5-4.7 28.9-3.1 6.8-.2 14.2.4 23"/><path class="st3" d="M301.9 319.8c5.4-5.3 9-14.1 10.8-20.9"/><path class="st3" d="M284.8 323c6.2-10.7 7.1-24.7 2.5-36.5"/><path class="st3" d="M256 335.9c3.6-7 5.8-17 5.8-30"/><path class="st3" d="M182.7 354.9c.9 6 8.3 8.7 9.4 5.8"/><path class="st3" d="M241.2 283.8c0 5.9-4.7 10.3-8.3 6.8.5 8.6-4.5 11.2-8 7.1.7 12.1-7.3 13.3-12.5 3.8-5.9 36.3-25.7 63.4-27.1 81.1-.5 4.1-13.1 3-9.8-9.1"/><path class="st3" d="M326.9 317.1c-7.1-1.1-19.5-3.8-24.9 2.7"/><path class="st3" d="M329.7 344.9c-6.5 3.2-11.8 4.4-16 4"/><path class="st3" d="M347.8 369.6c6.5-.3 13.2-5.7 15.9-19.1"/><path class="st3" d="M335.1 362.8c5.6-1.8 10.2-6.5 12.7-12.9"/><path class="st3" d="M367.2 372.6c-4.1-1.6-12.8-3.8-19.5-3"/><path class="st3" d="M343.9 392.4c2.6-1.8-1.7-9.7-5.9-9.7"/><path class="st3" d="M294.3 405.6c6-3.2 11.8-7.2 17.2-11.8"/><path class="st3" d="M328.2 390.9c3.2 1.3 7.9 6.5 6.3 8.3"/><path class="st3" d="M358.5 280.6c3.8 8.3 10.9 13.6 20.3 8.3.7 2.5 2.9 5 5.7 7.1"/><path class="st3" d="M410.6 278.5c4.7 4.7-3.5 22.1-15.8 21.5"/><path class="st3" d="M476.7 385c1.6 4.9 7.8 4.4 10.1 0 2.7-5.1 7.5-20.6 4.7-51.9-2.8-31.3-26.9-35.4-54.7-42.5-27.8-7.1-34.9-18.3-40.6-38.9"/><path class="st3" d="M481.4 368.8c2.4 5 9 3.8 9.9-1.2"/><path class="st3" d="M482.1 351.9c3.5 2.7 10.4 1.8 10.1-4.1"/><path class="st3" d="M480.2 333.4c3.1 0 11.3.6 10.9-4.1"/><path class="st3" d="M472.4 321.3c2.6-2.4 9.9-12.4 5.9-15.3"/><path class="st3" d="M459.2 319.5c4.5-3.2 9.4-20.1 4-21.5"/><path class="st3" d="M437.8 316.3c7.1-3.5 13.7-21.8 9-23"/><path class="st3" d="M414.9 312.1c11.6-3.8 15.1-23.3 10.6-25.1"/><path class="st3" d="M430.7 399.4c12 1.2 18.6 9.1 23.4 12.4"/><path class="st3" d="M427.9 239.3c11-1.3 21.8 19.6 36.7 35.3"/><path class="st3" d="M548.8 146.4c2.1-9.1 3.8-17.7 4.6-22.7"/><path class="st3" d="M437.5 417.1c2.8-.6 5.7-.9 8.5-.8"/><path class="st3" d="M544.4 116.6c-1.6 5.6-5 17.1-8.4 28.2"/><path class="st3" d="M247.6 213.7c-20.8 9-42.4 26.2-56.2 58 7.5 2.4 22.2 0 28.8-2.9.5 7.7.5 17.7.5 24.2 6.6-6.5 14.6-15.9 20.8-18.3-.5 7.7-.5 21.2-.5 26.5 9-11.8 25.9-13 30.7 4.7 3.8-26 34.9-27.1 42.5-4.7 8.5-20.6 30.2-28.3 44.4-20.6 6.1-21.8 33-33.6 50.5-28.3-5.8-10-4.8-21.1 0-30.6"/></g><path d="M180.6 70.2l9.3 2.1c-.1.1-6.6 11-9.3-2.1z" stroke="#000" stroke-width="1.8" stroke-linejoin="round"/></svg>